<?xml version="1.0" encoding="utf-8"?>
<!-- Generator: Adobe Illustrator 16.0.0, SVG Export Plug-In . SVG Version: 6.00 Build 0)  -->
<!DOCTYPE svg PUBLIC "-//W3C//DTD SVG 1.1//EN" "http://www.w3.org/Graphics/SVG/1.1/DTD/svg11.dtd">
<svg version="1.1" id="Layer_1" xmlns="http://www.w3.org/2000/svg" xmlns:xlink="http://www.w3.org/1999/xlink" x="0px" y="0px"
	 width="260px" height="125px" viewBox="0 0 260 125" enable-background="new 0 0 260 125" xml:space="preserve">
<rect fill="#FFFFFF" width="260" height="125"/>
<path d="M68,36h-5.5H57c-12.1,0-22,9.9-22,22v5.5V69v22h22h5.5H68c12.1,0,22-9.9,22-22v-5.5V58V36H68z M79,60.2v3.3v3.3
	C79,74.06,73.061,80,65.8,80h-3.3h-3.3H46v-7.425h0.056c0.257-1.251,1.37-2.2,2.694-2.2l9.299-1.06l6.989-9.03l-16.288,1.29
	c-1.376,0-2.514-1.028-2.709-2.353C46.546,52.415,52.27,47,59.2,47h3.3h3.3H79V60.2z"/>
<path d="M123,60h-8v31h-11V60h-6v-5.5l6-2.5v-2.883c0-2.508,0.652-4.893,1.262-6.545s1.477-2.971,2.602-3.955
	s2.484-1.682,4.078-2.092c1.594-0.41,3.387-0.615,5.379-0.615c2.156,0,3.973,0.17,5.449,0.51c1.477,0.34,2.73,0.721,3.762,1.143
	L124,45.438c-0.727-0.258-1.488-0.492-2.285-0.703s-1.734-0.316-2.812-0.316c-1.406,0-2.396,0.452-2.971,1.354
	c-0.574,0.902-0.861,2.057-0.861,3.463L115,52h8V60z"/>
<path d="M141,91h-11V36h11V91z"/>
<path d="M207.996,91.246c-2.812,0-5.402-0.41-7.77-1.23s-4.406-2.057-6.117-3.709s-3.041-3.738-3.99-6.258
	c-0.949-2.519-1.424-5.479-1.424-8.877c0-3.445,0.434-6.457,1.301-9.035c0.867-2.578,2.08-4.729,3.639-6.451
	s3.434-3.018,5.625-3.885c2.191-0.867,4.623-1.301,7.295-1.301c2.602,0,4.951,0.393,7.049,1.178
	c2.098,0.786,3.879,1.939,5.344,3.463c1.465,1.524,2.59,3.393,3.375,5.607s1.178,4.752,1.178,7.611v5.203h-23.977
	c0.047,1.5,0.287,2.854,0.721,4.061c0.434,1.208,1.043,2.227,1.828,3.059c0.785,0.832,1.734,1.471,2.848,1.916
	c1.113,0.445,2.385,0.668,3.814,0.668c1.195,0,2.326-0.064,3.393-0.193c1.066-0.128,2.104-0.322,3.111-0.58
	c1.008-0.258,4.98-1.477,6.012-1.992v7.969c-0.938,0.492-1.881,0.908-2.83,1.248s-1.951,0.628-3.006,0.861
	c-1.055,0.234-2.191,0.404-3.41,0.51S209.449,91.246,207.996,91.246z M206.625,58.129c-1.898,0-3.475,0.668-4.729,2.004
	s-1.975,3.434-2.162,6.293h13.676c-0.023-1.195-0.176-2.297-0.457-3.305c-0.281-1.007-0.703-1.881-1.266-2.619
	s-1.266-1.318-2.109-1.74S207.75,58.129,206.625,58.129z"/>
<path d="M183.16,70.82c0,3.282-0.416,6.188-1.248,8.719s-2.027,4.664-3.586,6.398c-1.559,1.735-3.457,3.053-5.695,3.955
	c-2.238,0.902-4.752,1.354-7.541,1.354c-2.602,0-4.992-0.451-7.172-1.354c-2.18-0.902-4.061-2.22-5.643-3.955
	c-1.582-1.734-2.818-3.867-3.709-6.398s-1.336-5.437-1.336-8.719c0-3.257,0.416-6.152,1.248-8.684s2.027-4.658,3.586-6.381
	s3.451-3.029,5.678-3.92c2.227-0.891,4.746-1.336,7.559-1.336c2.602,0,4.992,0.445,7.172,1.336c2.18,0.891,4.061,2.197,5.643,3.92
	s2.818,3.85,3.709,6.381S183.16,67.563,183.16,70.82z M158.199,70.82c0,3.915,0.551,6.861,1.652,8.842
	c1.102,1.981,2.895,2.971,5.379,2.971c2.461,0,4.242-0.996,5.344-2.988c1.102-1.992,1.652-4.934,1.652-8.824
	c0-3.914-0.551-6.838-1.652-8.771s-2.906-2.9-5.414-2.9c-2.461,0-4.236,0.967-5.326,2.9S158.199,66.906,158.199,70.82z"/>
</svg>
