<?xml version="1.0" encoding="utf-8"?>
<!-- Generator: Adobe Illustrator 16.0.0, SVG Export Plug-In . SVG Version: 6.00 Build 0)  -->
<!DOCTYPE svg PUBLIC "-//W3C//DTD SVG 1.1//EN" "http://www.w3.org/Graphics/SVG/1.1/DTD/svg11.dtd">
<svg version="1.1" id="Layer_1" xmlns="http://www.w3.org/2000/svg" xmlns:xlink="http://www.w3.org/1999/xlink" x="0px" y="0px"
	 width="65px" height="65px" viewBox="0 0 65 65" enable-background="new 0 0 65 65" xml:space="preserve">
<path d="M59.164,46.674c1.713-2.899,0.66-6.676-2.338-8.444l-12.457-7.352l10.838-9.566
	c2.619-2.313,2.928-6.228,0.707-8.75c-2.225-2.53-6.158-2.698-8.769-0.387l-10.837,9.566L30.561,8.479
	C29.17,5.28,25.544,3.78,22.45,5.122c-3.083,1.336-4.456,5.014-3.06,8.21l5.746,13.261L10.75,27.974
	c-3.476,0.327-6.032,3.308-5.707,6.647c0.321,3.359,3.384,5.812,6.857,5.482l14.3-1.374l-3.115,14.016
	c-0.755,3.406,1.277,6.759,4.567,7.482c3.283,0.732,6.57-1.439,7.321-4.826l3.208-14.04l12.459,7.352
	C53.636,50.482,57.46,49.562,59.164,46.674z"/>
</svg>
